<?xml version="1.0" encoding="UTF-8" standalone="no"?>
<svg
   version="1.1"
   x="0"
   y="0"
   width="325"
   height="300"
   viewBox="0, 0, 325, 300"
   id="svg147"
   sodipodi:docname="logo.svg"
   inkscape:version="1.2.2 (b0a8486541, 2022-12-01)"
   xmlns:inkscape="http://www.inkscape.org/namespaces/inkscape"
   xmlns:sodipodi="http://sodipodi.sourceforge.net/DTD/sodipodi-0.dtd"
   xmlns="http://www.w3.org/2000/svg"
   xmlns:svg="http://www.w3.org/2000/svg">
  <defs
     id="defs151" />
  <sodipodi:namedview
     id="namedview149"
     pagecolor="#767676"
     bordercolor="#000000"
     borderopacity="0.25"
     inkscape:showpageshadow="2"
     inkscape:pageopacity="0"
     inkscape:pagecheckerboard="0"
     inkscape:deskcolor="#d1d1d1"
     showgrid="false"
     inkscape:zoom="3.94"
     inkscape:cx="162.43655"
     inkscape:cy="159.64467"
     inkscape:window-width="2560"
     inkscape:window-height="1384"
     inkscape:window-x="1440"
     inkscape:window-y="843"
     inkscape:window-maximized="1"
     inkscape:current-layer="g897" />
  <g
     id="Background">
    <rect
       x="0"
       y="0"
       width="325"
       height="300"
       fill="#000000"
       fill-opacity="0"
       id="rect132" />
  </g>
  <g
     id="g897">
    <path
       d="M229.183,217.888 L95.817,217.888"
       fill-opacity="0"
       stroke="#282828"
       stroke-width="12.375"
       stroke-linecap="round"
       id="path878"
       style="stroke:#ffffff;stroke-opacity:1" />
    <path
       d="M162.5,102.388 L95.817,217.888"
       fill-opacity="0"
       stroke="#282828"
       stroke-width="12.375"
       stroke-linecap="round"
       id="path874"
       style="stroke:#ffffff;stroke-opacity:1" />
    <path
       d="M95.817,217.888 L34.84,278.865"
       fill-opacity="0"
       stroke="#282828"
       stroke-width="12.375"
       stroke-linecap="round"
       id="path880"
       style="stroke:#ffffff;stroke-opacity:1" />
    <path
       d="M142.508,217.888 C142.508,243.675 121.604,264.579 95.817,264.579 C70.03,264.579 49.126,243.675 49.126,217.888 C49.126,192.101 70.03,171.197 95.817,171.197 C121.604,171.197 142.508,192.101 142.508,217.888"
       fill="#CA3A33"
       id="path2" />
    <path
       d="M229.183,217.888 L290.16,278.865"
       fill-opacity="0"
       stroke="#282828"
       stroke-width="12.375"
       stroke-linecap="round"
       id="path139"
       style="stroke:#ffffff;stroke-opacity:1" />
    <path
       d="M229.183,217.888 L162.5,102.388"
       fill-opacity="0"
       stroke="#282828"
       stroke-width="12.375"
       stroke-linecap="round"
       id="path876"
       style="stroke:#ffffff;stroke-opacity:1" />
    <path
       d="M162.5,102.388 L162.5,16.153"
       fill-opacity="0"
       stroke="#282828"
       stroke-width="12.375"
       stroke-linecap="round"
       id="path142"
       inkscape:label="path142"
       style="fill:none;fill-opacity:1;stroke:#ffffff;stroke-opacity:1" />
    <path
       d="M209.191,102.388 C209.191,128.175 188.287,149.079 162.5,149.079 C136.713,149.079 115.809,128.175 115.809,102.388 C115.809,76.601 136.713,55.697 162.5,55.697 C188.287,55.697 209.191,76.601 209.191,102.388"
       fill="#389723"
       id="path4" />
    <path
       d="M275.874,217.888 C275.874,243.675 254.97,264.579 229.183,264.579 C203.396,264.579 182.492,243.675 182.492,217.888 C182.492,192.101 203.396,171.197 229.183,171.197 C254.97,171.197 275.874,192.101 275.874,217.888"
       fill="#9457B0"
       id="path6" />
  </g>
</svg>
